<svg width="518" height="541" viewBox="0 0 518 541" fill="none" xmlns="http://www.w3.org/2000/svg">
<rect width="518" height="541" fill="url(#paint0_linear_2_2)"/>
<rect x="19" y="24" width="85" height="86" fill="white"/>
<rect x="414" y="24" width="85" height="86" fill="white"/>
<rect x="317" y="24" width="85" height="86" fill="white"/>
<rect x="220" y="24" width="85" height="86" fill="white"/>
<rect x="123" y="24" width="85" height="86" fill="white"/>
<path d="M48.7727 78H45.8182L54.3636 54.7273H57.2727L65.8182 78H62.8636L55.9091 58.4091H55.7273L48.7727 78ZM49.8636 68.9091H61.7727V71.4091H49.8636V68.9091ZM76.1222 54.7273V78H73.304V57.6818H73.1676L67.4858 61.4545V58.5909L73.304 54.7273H76.1222Z" fill="black"/>
<path d="M441.773 78H438.818L447.364 54.7273H450.273L458.818 78H455.864L448.909 58.4091H448.727L441.773 78ZM442.864 68.9091H454.773V71.4091H442.864V68.9091ZM469.307 78.3182C467.973 78.3182 466.773 78.053 465.705 77.5227C464.636 76.9924 463.78 76.2652 463.136 75.3409C462.492 74.4167 462.14 73.3636 462.08 72.1818H464.807C464.913 73.2348 465.39 74.1061 466.239 74.7955C467.095 75.4773 468.117 75.8182 469.307 75.8182C470.261 75.8182 471.11 75.5947 471.852 75.1477C472.602 74.7008 473.189 74.0871 473.614 73.3068C474.045 72.5189 474.261 71.6288 474.261 70.6364C474.261 69.6212 474.038 68.7159 473.591 67.9205C473.152 67.1174 472.545 66.4848 471.773 66.0227C471 65.5606 470.117 65.3258 469.125 65.3182C468.413 65.3106 467.682 65.4205 466.932 65.6477C466.182 65.8674 465.564 66.1515 465.08 66.5L462.443 66.1818L463.852 54.7273H475.943V57.2273H466.216L465.398 64.0909H465.534C466.011 63.7121 466.61 63.3977 467.33 63.1477C468.049 62.8977 468.799 62.7727 469.58 62.7727C471.004 62.7727 472.273 63.1136 473.386 63.7955C474.508 64.4697 475.386 65.3939 476.023 66.5682C476.667 67.7424 476.989 69.0833 476.989 70.5909C476.989 72.0758 476.655 73.4015 475.989 74.5682C475.33 75.7273 474.42 76.6439 473.261 77.3182C472.102 77.9848 470.784 78.3182 469.307 78.3182Z" fill="black"/>
<path d="M341.773 78H338.818L347.364 54.7273H350.273L358.818 78H355.864L348.909 58.4091H348.727L341.773 78ZM342.864 68.9091H354.773V71.4091H342.864V68.9091ZM361.489 73.2273V70.9091L371.716 54.7273H373.398V58.3182H372.261L364.534 70.5455V70.7273H378.307V73.2273H361.489ZM372.443 78V72.5227V71.4432V54.7273H375.125V78H372.443Z" fill="black"/>
<path d="M247.773 78H244.818L253.364 54.7273H256.273L264.818 78H261.864L254.909 58.4091H254.727L247.773 78ZM248.864 68.9091H260.773V71.4091H248.864V68.9091ZM275.898 78.3182C274.398 78.3182 273.061 78.0606 271.886 77.5455C270.72 77.0303 269.792 76.3144 269.102 75.3977C268.42 74.4735 268.049 73.4015 267.989 72.1818H270.852C270.913 72.9318 271.17 73.5795 271.625 74.125C272.08 74.6629 272.674 75.0795 273.409 75.375C274.144 75.6705 274.958 75.8182 275.852 75.8182C276.852 75.8182 277.739 75.6439 278.511 75.2955C279.284 74.947 279.89 74.4621 280.33 73.8409C280.769 73.2197 280.989 72.5 280.989 71.6818C280.989 70.8258 280.777 70.072 280.352 69.4205C279.928 68.7614 279.307 68.2462 278.489 67.875C277.67 67.5038 276.67 67.3182 275.489 67.3182H273.625V64.8182H275.489C276.413 64.8182 277.223 64.6515 277.92 64.3182C278.625 63.9848 279.174 63.5152 279.568 62.9091C279.97 62.303 280.17 61.5909 280.17 60.7727C280.17 59.9848 279.996 59.2992 279.648 58.7159C279.299 58.1326 278.807 57.678 278.17 57.3523C277.542 57.0265 276.799 56.8636 275.943 56.8636C275.14 56.8636 274.383 57.0114 273.67 57.3068C272.966 57.5947 272.39 58.0152 271.943 58.5682C271.496 59.1136 271.254 59.7727 271.216 60.5455H268.489C268.534 59.3258 268.902 58.2576 269.591 57.3409C270.28 56.4167 271.182 55.697 272.295 55.1818C273.417 54.6667 274.648 54.4091 275.989 54.4091C277.428 54.4091 278.663 54.7008 279.693 55.2841C280.723 55.8598 281.515 56.6212 282.068 57.5682C282.621 58.5152 282.898 59.5379 282.898 60.6364C282.898 61.947 282.553 63.0644 281.864 63.9886C281.182 64.9129 280.254 65.553 279.08 65.9091V66.0909C280.549 66.3333 281.697 66.9583 282.523 67.9659C283.348 68.9659 283.761 70.2045 283.761 71.6818C283.761 72.947 283.417 74.0833 282.727 75.0909C282.045 76.0909 281.114 76.8788 279.932 77.4545C278.75 78.0303 277.405 78.3182 275.898 78.3182Z" fill="black"/>
<path d="M150.773 78H147.818L156.364 54.7273H159.273L167.818 78H164.864L157.909 58.4091H157.727L150.773 78ZM151.864 68.9091H163.773V71.4091H151.864V68.9091ZM171.034 78V75.9545L178.716 67.5455C179.617 66.5606 180.36 65.7045 180.943 64.9773C181.527 64.2424 181.958 63.553 182.239 62.9091C182.527 62.2576 182.67 61.5758 182.67 60.8636C182.67 60.0455 182.473 59.3371 182.08 58.7386C181.693 58.1402 181.163 57.678 180.489 57.3523C179.814 57.0265 179.057 56.8636 178.216 56.8636C177.322 56.8636 176.542 57.0492 175.875 57.4205C175.216 57.7841 174.705 58.2955 174.341 58.9545C173.985 59.6136 173.807 60.3864 173.807 61.2727H171.125C171.125 59.9091 171.439 58.7121 172.068 57.6818C172.697 56.6515 173.553 55.8485 174.636 55.2727C175.727 54.697 176.951 54.4091 178.307 54.4091C179.67 54.4091 180.879 54.697 181.932 55.2727C182.985 55.8485 183.811 56.625 184.409 57.6023C185.008 58.5795 185.307 59.6667 185.307 60.8636C185.307 61.7197 185.152 62.5568 184.841 63.375C184.538 64.1856 184.008 65.0909 183.25 66.0909C182.5 67.0833 181.458 68.2955 180.125 69.7273L174.898 75.3182V75.5H185.716V78H171.034Z" fill="black"/>
<rect x="19" y="424" width="85" height="86" fill="white"/>
<rect x="414" y="424" width="85" height="86" fill="white"/>
<rect x="317" y="424" width="85" height="86" fill="white"/>
<rect x="220" y="424" width="85" height="86" fill="white"/>
<rect x="123" y="424" width="85" height="86" fill="white"/>
<path d="M47.8182 478V454.727H61.8636V457.227H50.6364V465.091H61.1364V467.591H50.6364V475.5H62.0455V478H47.8182ZM74.7159 454.727V478H71.8977V457.682H71.7614L66.0795 461.455V458.591L71.8977 454.727H74.7159Z" fill="black"/>
<path d="M440.818 478V454.727H454.864V457.227H443.636V465.091H454.136V467.591H443.636V475.5H455.045V478H440.818ZM466.807 478.318C465.473 478.318 464.273 478.053 463.205 477.523C462.136 476.992 461.28 476.265 460.636 475.341C459.992 474.417 459.64 473.364 459.58 472.182H462.307C462.413 473.235 462.89 474.106 463.739 474.795C464.595 475.477 465.617 475.818 466.807 475.818C467.761 475.818 468.61 475.595 469.352 475.148C470.102 474.701 470.689 474.087 471.114 473.307C471.545 472.519 471.761 471.629 471.761 470.636C471.761 469.621 471.538 468.716 471.091 467.92C470.652 467.117 470.045 466.485 469.273 466.023C468.5 465.561 467.617 465.326 466.625 465.318C465.913 465.311 465.182 465.42 464.432 465.648C463.682 465.867 463.064 466.152 462.58 466.5L459.943 466.182L461.352 454.727H473.443V457.227H463.716L462.898 464.091H463.034C463.511 463.712 464.11 463.398 464.83 463.148C465.549 462.898 466.299 462.773 467.08 462.773C468.504 462.773 469.773 463.114 470.886 463.795C472.008 464.47 472.886 465.394 473.523 466.568C474.167 467.742 474.489 469.083 474.489 470.591C474.489 472.076 474.155 473.402 473.489 474.568C472.83 475.727 471.92 476.644 470.761 477.318C469.602 477.985 468.284 478.318 466.807 478.318Z" fill="black"/>
<path d="M341.818 478V454.727H355.864V457.227H344.636V465.091H355.136V467.591H344.636V475.5H356.045V478H341.818ZM359.989 473.227V470.909L370.216 454.727H371.898V458.318H370.761L363.034 470.545V470.727H376.807V473.227H359.989ZM370.943 478V472.523V471.443V454.727H373.625V478H370.943Z" fill="black"/>
<path d="M246.818 478V454.727H260.864V457.227H249.636V465.091H260.136V467.591H249.636V475.5H261.045V478H246.818ZM273.398 478.318C271.898 478.318 270.561 478.061 269.386 477.545C268.22 477.03 267.292 476.314 266.602 475.398C265.92 474.473 265.549 473.402 265.489 472.182H268.352C268.413 472.932 268.67 473.58 269.125 474.125C269.58 474.663 270.174 475.08 270.909 475.375C271.644 475.67 272.458 475.818 273.352 475.818C274.352 475.818 275.239 475.644 276.011 475.295C276.784 474.947 277.39 474.462 277.83 473.841C278.269 473.22 278.489 472.5 278.489 471.682C278.489 470.826 278.277 470.072 277.852 469.42C277.428 468.761 276.807 468.246 275.989 467.875C275.17 467.504 274.17 467.318 272.989 467.318H271.125V464.818H272.989C273.913 464.818 274.723 464.652 275.42 464.318C276.125 463.985 276.674 463.515 277.068 462.909C277.47 462.303 277.67 461.591 277.67 460.773C277.67 459.985 277.496 459.299 277.148 458.716C276.799 458.133 276.307 457.678 275.67 457.352C275.042 457.027 274.299 456.864 273.443 456.864C272.64 456.864 271.883 457.011 271.17 457.307C270.466 457.595 269.89 458.015 269.443 458.568C268.996 459.114 268.754 459.773 268.716 460.545H265.989C266.034 459.326 266.402 458.258 267.091 457.341C267.78 456.417 268.682 455.697 269.795 455.182C270.917 454.667 272.148 454.409 273.489 454.409C274.928 454.409 276.163 454.701 277.193 455.284C278.223 455.86 279.015 456.621 279.568 457.568C280.121 458.515 280.398 459.538 280.398 460.636C280.398 461.947 280.053 463.064 279.364 463.989C278.682 464.913 277.754 465.553 276.58 465.909V466.091C278.049 466.333 279.197 466.958 280.023 467.966C280.848 468.966 281.261 470.205 281.261 471.682C281.261 472.947 280.917 474.083 280.227 475.091C279.545 476.091 278.614 476.879 277.432 477.455C276.25 478.03 274.905 478.318 273.398 478.318Z" fill="black"/>
<path d="M149.818 478V454.727H163.864V457.227H152.636V465.091H163.136V467.591H152.636V475.5H164.045V478H149.818ZM168.534 478V475.955L176.216 467.545C177.117 466.561 177.86 465.705 178.443 464.977C179.027 464.242 179.458 463.553 179.739 462.909C180.027 462.258 180.17 461.576 180.17 460.864C180.17 460.045 179.973 459.337 179.58 458.739C179.193 458.14 178.663 457.678 177.989 457.352C177.314 457.027 176.557 456.864 175.716 456.864C174.822 456.864 174.042 457.049 173.375 457.42C172.716 457.784 172.205 458.295 171.841 458.955C171.485 459.614 171.307 460.386 171.307 461.273H168.625C168.625 459.909 168.939 458.712 169.568 457.682C170.197 456.652 171.053 455.848 172.136 455.273C173.227 454.697 174.451 454.409 175.807 454.409C177.17 454.409 178.379 454.697 179.432 455.273C180.485 455.848 181.311 456.625 181.909 457.602C182.508 458.58 182.807 459.667 182.807 460.864C182.807 461.72 182.652 462.557 182.341 463.375C182.038 464.186 181.508 465.091 180.75 466.091C180 467.083 178.958 468.295 177.625 469.727L172.398 475.318V475.5H183.216V478H168.534Z" fill="black"/>
<rect x="19" y="324" width="85" height="86" fill="white"/>
<rect x="414" y="324" width="85" height="86" fill="white"/>
<rect x="317" y="324" width="85" height="86" fill="white"/>
<rect x="220" y="324" width="85" height="86" fill="white"/>
<rect x="123" y="324" width="85" height="86" fill="white"/>
<path d="M50 378H42.8182V354.727H50.3182C52.5758 354.727 54.5076 355.193 56.1136 356.125C57.7197 357.049 58.9508 358.379 59.8068 360.114C60.6629 361.841 61.0909 363.909 61.0909 366.318C61.0909 368.742 60.6591 370.83 59.7955 372.58C58.9318 374.322 57.6742 375.663 56.0227 376.602C54.3712 377.534 52.3636 378 50 378ZM45.6364 375.5H49.8182C51.7424 375.5 53.3371 375.129 54.6023 374.386C55.8674 373.644 56.8106 372.587 57.4318 371.216C58.053 369.845 58.3636 368.212 58.3636 366.318C58.3636 364.439 58.0568 362.822 57.4432 361.466C56.8295 360.102 55.9129 359.057 54.6932 358.33C53.4735 357.595 51.9545 357.227 50.1364 357.227H45.6364V375.5ZM73.5909 354.727V378H70.7727V357.682H70.6364L64.9545 361.455V358.591L70.7727 354.727H73.5909Z" fill="black"/>
<path d="M448 378H440.818V354.727H448.318C450.576 354.727 452.508 355.193 454.114 356.125C455.72 357.049 456.951 358.379 457.807 360.114C458.663 361.841 459.091 363.909 459.091 366.318C459.091 368.742 458.659 370.83 457.795 372.58C456.932 374.322 455.674 375.663 454.023 376.602C452.371 377.534 450.364 378 448 378ZM443.636 375.5H447.818C449.742 375.5 451.337 375.129 452.602 374.386C453.867 373.644 454.811 372.587 455.432 371.216C456.053 369.845 456.364 368.212 456.364 366.318C456.364 364.439 456.057 362.822 455.443 361.466C454.83 360.102 453.913 359.057 452.693 358.33C451.473 357.595 449.955 357.227 448.136 357.227H443.636V375.5ZM470.682 378.318C469.348 378.318 468.148 378.053 467.08 377.523C466.011 376.992 465.155 376.265 464.511 375.341C463.867 374.417 463.515 373.364 463.455 372.182H466.182C466.288 373.235 466.765 374.106 467.614 374.795C468.47 375.477 469.492 375.818 470.682 375.818C471.636 375.818 472.485 375.595 473.227 375.148C473.977 374.701 474.564 374.087 474.989 373.307C475.42 372.519 475.636 371.629 475.636 370.636C475.636 369.621 475.413 368.716 474.966 367.92C474.527 367.117 473.92 366.485 473.148 366.023C472.375 365.561 471.492 365.326 470.5 365.318C469.788 365.311 469.057 365.42 468.307 365.648C467.557 365.867 466.939 366.152 466.455 366.5L463.818 366.182L465.227 354.727H477.318V357.227H467.591L466.773 364.091H466.909C467.386 363.712 467.985 363.398 468.705 363.148C469.424 362.898 470.174 362.773 470.955 362.773C472.379 362.773 473.648 363.114 474.761 363.795C475.883 364.47 476.761 365.394 477.398 366.568C478.042 367.742 478.364 369.083 478.364 370.591C478.364 372.076 478.03 373.402 477.364 374.568C476.705 375.727 475.795 376.644 474.636 377.318C473.477 377.985 472.159 378.318 470.682 378.318Z" fill="black"/>
<path d="M348 378H340.818V354.727H348.318C350.576 354.727 352.508 355.193 354.114 356.125C355.72 357.049 356.951 358.379 357.807 360.114C358.663 361.841 359.091 363.909 359.091 366.318C359.091 368.742 358.659 370.83 357.795 372.58C356.932 374.322 355.674 375.663 354.023 376.602C352.371 377.534 350.364 378 348 378ZM343.636 375.5H347.818C349.742 375.5 351.337 375.129 352.602 374.386C353.867 373.644 354.811 372.587 355.432 371.216C356.053 369.845 356.364 368.212 356.364 366.318C356.364 364.439 356.057 362.822 355.443 361.466C354.83 360.102 353.913 359.057 352.693 358.33C351.473 357.595 349.955 357.227 348.136 357.227H343.636V375.5ZM362.864 373.227V370.909L373.091 354.727H374.773V358.318H373.636L365.909 370.545V370.727H379.682V373.227H362.864ZM373.818 378V372.523V371.443V354.727H376.5V378H373.818Z" fill="black"/>
<path d="M250 378H242.818V354.727H250.318C252.576 354.727 254.508 355.193 256.114 356.125C257.72 357.049 258.951 358.379 259.807 360.114C260.663 361.841 261.091 363.909 261.091 366.318C261.091 368.742 260.659 370.83 259.795 372.58C258.932 374.322 257.674 375.663 256.023 376.602C254.371 377.534 252.364 378 250 378ZM245.636 375.5H249.818C251.742 375.5 253.337 375.129 254.602 374.386C255.867 373.644 256.811 372.587 257.432 371.216C258.053 369.845 258.364 368.212 258.364 366.318C258.364 364.439 258.057 362.822 257.443 361.466C256.83 360.102 255.913 359.057 254.693 358.33C253.473 357.595 251.955 357.227 250.136 357.227H245.636V375.5ZM273.273 378.318C271.773 378.318 270.436 378.061 269.261 377.545C268.095 377.03 267.167 376.314 266.477 375.398C265.795 374.473 265.424 373.402 265.364 372.182H268.227C268.288 372.932 268.545 373.58 269 374.125C269.455 374.663 270.049 375.08 270.784 375.375C271.519 375.67 272.333 375.818 273.227 375.818C274.227 375.818 275.114 375.644 275.886 375.295C276.659 374.947 277.265 374.462 277.705 373.841C278.144 373.22 278.364 372.5 278.364 371.682C278.364 370.826 278.152 370.072 277.727 369.42C277.303 368.761 276.682 368.246 275.864 367.875C275.045 367.504 274.045 367.318 272.864 367.318H271V364.818H272.864C273.788 364.818 274.598 364.652 275.295 364.318C276 363.985 276.549 363.515 276.943 362.909C277.345 362.303 277.545 361.591 277.545 360.773C277.545 359.985 277.371 359.299 277.023 358.716C276.674 358.133 276.182 357.678 275.545 357.352C274.917 357.027 274.174 356.864 273.318 356.864C272.515 356.864 271.758 357.011 271.045 357.307C270.341 357.595 269.765 358.015 269.318 358.568C268.871 359.114 268.629 359.773 268.591 360.545H265.864C265.909 359.326 266.277 358.258 266.966 357.341C267.655 356.417 268.557 355.697 269.67 355.182C270.792 354.667 272.023 354.409 273.364 354.409C274.803 354.409 276.038 354.701 277.068 355.284C278.098 355.86 278.89 356.621 279.443 357.568C279.996 358.515 280.273 359.538 280.273 360.636C280.273 361.947 279.928 363.064 279.239 363.989C278.557 364.913 277.629 365.553 276.455 365.909V366.091C277.924 366.333 279.072 366.958 279.898 367.966C280.723 368.966 281.136 370.205 281.136 371.682C281.136 372.947 280.792 374.083 280.102 375.091C279.42 376.091 278.489 376.879 277.307 377.455C276.125 378.03 274.78 378.318 273.273 378.318Z" fill="black"/>
<path d="M157 378H149.818V354.727H157.318C159.576 354.727 161.508 355.193 163.114 356.125C164.72 357.049 165.951 358.379 166.807 360.114C167.663 361.841 168.091 363.909 168.091 366.318C168.091 368.742 167.659 370.83 166.795 372.58C165.932 374.322 164.674 375.663 163.023 376.602C161.371 377.534 159.364 378 157 378ZM152.636 375.5H156.818C158.742 375.5 160.337 375.129 161.602 374.386C162.867 373.644 163.811 372.587 164.432 371.216C165.053 369.845 165.364 368.212 165.364 366.318C165.364 364.439 165.057 362.822 164.443 361.466C163.83 360.102 162.913 359.057 161.693 358.33C160.473 357.595 158.955 357.227 157.136 357.227H152.636V375.5ZM172.409 378V375.955L180.091 367.545C180.992 366.561 181.735 365.705 182.318 364.977C182.902 364.242 183.333 363.553 183.614 362.909C183.902 362.258 184.045 361.576 184.045 360.864C184.045 360.045 183.848 359.337 183.455 358.739C183.068 358.14 182.538 357.678 181.864 357.352C181.189 357.027 180.432 356.864 179.591 356.864C178.697 356.864 177.917 357.049 177.25 357.42C176.591 357.784 176.08 358.295 175.716 358.955C175.36 359.614 175.182 360.386 175.182 361.273H172.5C172.5 359.909 172.814 358.712 173.443 357.682C174.072 356.652 174.928 355.848 176.011 355.273C177.102 354.697 178.326 354.409 179.682 354.409C181.045 354.409 182.254 354.697 183.307 355.273C184.36 355.848 185.186 356.625 185.784 357.602C186.383 358.58 186.682 359.667 186.682 360.864C186.682 361.72 186.527 362.557 186.216 363.375C185.913 364.186 185.383 365.091 184.625 366.091C183.875 367.083 182.833 368.295 181.5 369.727L176.273 375.318V375.5H187.091V378H172.409Z" fill="black"/>
<rect x="19" y="224" width="85" height="86" fill="white"/>
<rect x="414" y="224" width="85" height="86" fill="white"/>
<rect x="317" y="224" width="85" height="86" fill="white"/>
<rect x="220" y="224" width="85" height="86" fill="white"/>
<rect x="123" y="224" width="85" height="86" fill="white"/>
<path d="M61.5455 262H58.7273C58.5606 261.189 58.2689 260.477 57.8523 259.864C57.4432 259.25 56.9432 258.735 56.3523 258.318C55.7689 257.894 55.1212 257.576 54.4091 257.364C53.697 257.152 52.9545 257.045 52.1818 257.045C50.7727 257.045 49.4962 257.402 48.3523 258.114C47.2159 258.826 46.3106 259.875 45.6364 261.261C44.9697 262.648 44.6364 264.348 44.6364 266.364C44.6364 268.379 44.9697 270.08 45.6364 271.466C46.3106 272.852 47.2159 273.902 48.3523 274.614C49.4962 275.326 50.7727 275.682 52.1818 275.682C52.9545 275.682 53.697 275.576 54.4091 275.364C55.1212 275.152 55.7689 274.837 56.3523 274.42C56.9432 273.996 57.4432 273.477 57.8523 272.864C58.2689 272.242 58.5606 271.53 58.7273 270.727H61.5455C61.3333 271.917 60.947 272.981 60.3864 273.92C59.8258 274.86 59.1288 275.659 58.2955 276.318C57.4621 276.97 56.5265 277.466 55.4886 277.807C54.4583 278.148 53.3561 278.318 52.1818 278.318C50.197 278.318 48.4318 277.833 46.8864 276.864C45.3409 275.894 44.125 274.515 43.2386 272.727C42.3523 270.939 41.9091 268.818 41.9091 266.364C41.9091 263.909 42.3523 261.788 43.2386 260C44.125 258.212 45.3409 256.833 46.8864 255.864C48.4318 254.894 50.197 254.409 52.1818 254.409C53.3561 254.409 54.4583 254.58 55.4886 254.92C56.5265 255.261 57.4621 255.761 58.2955 256.42C59.1288 257.072 59.8258 257.867 60.3864 258.807C60.947 259.739 61.3333 260.803 61.5455 262ZM73.8722 254.727V278H71.054V257.682H70.9176L65.2358 261.455V258.591L71.054 254.727H73.8722Z" fill="black"/>
<path d="M454.545 262H451.727C451.561 261.189 451.269 260.477 450.852 259.864C450.443 259.25 449.943 258.735 449.352 258.318C448.769 257.894 448.121 257.576 447.409 257.364C446.697 257.152 445.955 257.045 445.182 257.045C443.773 257.045 442.496 257.402 441.352 258.114C440.216 258.826 439.311 259.875 438.636 261.261C437.97 262.648 437.636 264.348 437.636 266.364C437.636 268.379 437.97 270.08 438.636 271.466C439.311 272.852 440.216 273.902 441.352 274.614C442.496 275.326 443.773 275.682 445.182 275.682C445.955 275.682 446.697 275.576 447.409 275.364C448.121 275.152 448.769 274.837 449.352 274.42C449.943 273.996 450.443 273.477 450.852 272.864C451.269 272.242 451.561 271.53 451.727 270.727H454.545C454.333 271.917 453.947 272.981 453.386 273.92C452.826 274.86 452.129 275.659 451.295 276.318C450.462 276.97 449.527 277.466 448.489 277.807C447.458 278.148 446.356 278.318 445.182 278.318C443.197 278.318 441.432 277.833 439.886 276.864C438.341 275.894 437.125 274.515 436.239 272.727C435.352 270.939 434.909 268.818 434.909 266.364C434.909 263.909 435.352 261.788 436.239 260C437.125 258.212 438.341 256.833 439.886 255.864C441.432 254.894 443.197 254.409 445.182 254.409C446.356 254.409 447.458 254.58 448.489 254.92C449.527 255.261 450.462 255.761 451.295 256.42C452.129 257.072 452.826 257.867 453.386 258.807C453.947 259.739 454.333 260.803 454.545 262ZM465.963 278.318C464.63 278.318 463.429 278.053 462.361 277.523C461.293 276.992 460.437 276.265 459.793 275.341C459.149 274.417 458.796 273.364 458.736 272.182H461.463C461.569 273.235 462.046 274.106 462.895 274.795C463.751 275.477 464.774 275.818 465.963 275.818C466.918 275.818 467.766 275.595 468.509 275.148C469.259 274.701 469.846 274.087 470.27 273.307C470.702 272.519 470.918 271.629 470.918 270.636C470.918 269.621 470.694 268.716 470.247 267.92C469.808 267.117 469.202 266.485 468.429 266.023C467.656 265.561 466.774 265.326 465.781 265.318C465.069 265.311 464.338 265.42 463.588 265.648C462.838 265.867 462.221 266.152 461.736 266.5L459.099 266.182L460.509 254.727H472.599V257.227H462.872L462.054 264.091H462.19C462.668 263.712 463.266 263.398 463.986 263.148C464.705 262.898 465.455 262.773 466.236 262.773C467.66 262.773 468.929 263.114 470.043 263.795C471.164 264.47 472.043 265.394 472.679 266.568C473.323 267.742 473.645 269.083 473.645 270.591C473.645 272.076 473.312 273.402 472.645 274.568C471.986 275.727 471.077 276.644 469.918 277.318C468.759 277.985 467.44 278.318 465.963 278.318Z" fill="black"/>
<path d="M357.545 262H354.727C354.561 261.189 354.269 260.477 353.852 259.864C353.443 259.25 352.943 258.735 352.352 258.318C351.769 257.894 351.121 257.576 350.409 257.364C349.697 257.152 348.955 257.045 348.182 257.045C346.773 257.045 345.496 257.402 344.352 258.114C343.216 258.826 342.311 259.875 341.636 261.261C340.97 262.648 340.636 264.348 340.636 266.364C340.636 268.379 340.97 270.08 341.636 271.466C342.311 272.852 343.216 273.902 344.352 274.614C345.496 275.326 346.773 275.682 348.182 275.682C348.955 275.682 349.697 275.576 350.409 275.364C351.121 275.152 351.769 274.837 352.352 274.42C352.943 273.996 353.443 273.477 353.852 272.864C354.269 272.242 354.561 271.53 354.727 270.727H357.545C357.333 271.917 356.947 272.981 356.386 273.92C355.826 274.86 355.129 275.659 354.295 276.318C353.462 276.97 352.527 277.466 351.489 277.807C350.458 278.148 349.356 278.318 348.182 278.318C346.197 278.318 344.432 277.833 342.886 276.864C341.341 275.894 340.125 274.515 339.239 272.727C338.352 270.939 337.909 268.818 337.909 266.364C337.909 263.909 338.352 261.788 339.239 260C340.125 258.212 341.341 256.833 342.886 255.864C344.432 254.894 346.197 254.409 348.182 254.409C349.356 254.409 350.458 254.58 351.489 254.92C352.527 255.261 353.462 255.761 354.295 256.42C355.129 257.072 355.826 257.867 356.386 258.807C356.947 259.739 357.333 260.803 357.545 262ZM361.145 273.227V270.909L371.372 254.727H373.054V258.318H371.918L364.19 270.545V270.727H377.963V273.227H361.145ZM372.099 278V272.523V271.443V254.727H374.781V278H372.099Z" fill="black"/>
<path d="M261.545 262H258.727C258.561 261.189 258.269 260.477 257.852 259.864C257.443 259.25 256.943 258.735 256.352 258.318C255.769 257.894 255.121 257.576 254.409 257.364C253.697 257.152 252.955 257.045 252.182 257.045C250.773 257.045 249.496 257.402 248.352 258.114C247.216 258.826 246.311 259.875 245.636 261.261C244.97 262.648 244.636 264.348 244.636 266.364C244.636 268.379 244.97 270.08 245.636 271.466C246.311 272.852 247.216 273.902 248.352 274.614C249.496 275.326 250.773 275.682 252.182 275.682C252.955 275.682 253.697 275.576 254.409 275.364C255.121 275.152 255.769 274.837 256.352 274.42C256.943 273.996 257.443 273.477 257.852 272.864C258.269 272.242 258.561 271.53 258.727 270.727H261.545C261.333 271.917 260.947 272.981 260.386 273.92C259.826 274.86 259.129 275.659 258.295 276.318C257.462 276.97 256.527 277.466 255.489 277.807C254.458 278.148 253.356 278.318 252.182 278.318C250.197 278.318 248.432 277.833 246.886 276.864C245.341 275.894 244.125 274.515 243.239 272.727C242.352 270.939 241.909 268.818 241.909 266.364C241.909 263.909 242.352 261.788 243.239 260C244.125 258.212 245.341 256.833 246.886 255.864C248.432 254.894 250.197 254.409 252.182 254.409C253.356 254.409 254.458 254.58 255.489 254.92C256.527 255.261 257.462 255.761 258.295 256.42C259.129 257.072 259.826 257.867 260.386 258.807C260.947 259.739 261.333 260.803 261.545 262ZM273.554 278.318C272.054 278.318 270.717 278.061 269.543 277.545C268.376 277.03 267.448 276.314 266.759 275.398C266.077 274.473 265.705 273.402 265.645 272.182H268.509C268.569 272.932 268.827 273.58 269.281 274.125C269.736 274.663 270.33 275.08 271.065 275.375C271.8 275.67 272.615 275.818 273.509 275.818C274.509 275.818 275.395 275.644 276.168 275.295C276.94 274.947 277.546 274.462 277.986 273.841C278.425 273.22 278.645 272.5 278.645 271.682C278.645 270.826 278.433 270.072 278.009 269.42C277.584 268.761 276.963 268.246 276.145 267.875C275.327 267.504 274.327 267.318 273.145 267.318H271.281V264.818H273.145C274.069 264.818 274.88 264.652 275.577 264.318C276.281 263.985 276.83 263.515 277.224 262.909C277.626 262.303 277.827 261.591 277.827 260.773C277.827 259.985 277.652 259.299 277.304 258.716C276.955 258.133 276.463 257.678 275.827 257.352C275.198 257.027 274.455 256.864 273.599 256.864C272.796 256.864 272.039 257.011 271.327 257.307C270.622 257.595 270.046 258.015 269.599 258.568C269.152 259.114 268.91 259.773 268.872 260.545H266.145C266.19 259.326 266.558 258.258 267.247 257.341C267.937 256.417 268.838 255.697 269.952 255.182C271.073 254.667 272.304 254.409 273.645 254.409C275.084 254.409 276.319 254.701 277.349 255.284C278.38 255.86 279.171 256.621 279.724 257.568C280.277 258.515 280.554 259.538 280.554 260.636C280.554 261.947 280.209 263.064 279.52 263.989C278.838 264.913 277.91 265.553 276.736 265.909V266.091C278.205 266.333 279.353 266.958 280.179 267.966C281.005 268.966 281.418 270.205 281.418 271.682C281.418 272.947 281.073 274.083 280.384 275.091C279.702 276.091 278.77 276.879 277.588 277.455C276.406 278.03 275.062 278.318 273.554 278.318Z" fill="black"/>
<path d="M163.545 262H160.727C160.561 261.189 160.269 260.477 159.852 259.864C159.443 259.25 158.943 258.735 158.352 258.318C157.769 257.894 157.121 257.576 156.409 257.364C155.697 257.152 154.955 257.045 154.182 257.045C152.773 257.045 151.496 257.402 150.352 258.114C149.216 258.826 148.311 259.875 147.636 261.261C146.97 262.648 146.636 264.348 146.636 266.364C146.636 268.379 146.97 270.08 147.636 271.466C148.311 272.852 149.216 273.902 150.352 274.614C151.496 275.326 152.773 275.682 154.182 275.682C154.955 275.682 155.697 275.576 156.409 275.364C157.121 275.152 157.769 274.837 158.352 274.42C158.943 273.996 159.443 273.477 159.852 272.864C160.269 272.242 160.561 271.53 160.727 270.727H163.545C163.333 271.917 162.947 272.981 162.386 273.92C161.826 274.86 161.129 275.659 160.295 276.318C159.462 276.97 158.527 277.466 157.489 277.807C156.458 278.148 155.356 278.318 154.182 278.318C152.197 278.318 150.432 277.833 148.886 276.864C147.341 275.894 146.125 274.515 145.239 272.727C144.352 270.939 143.909 268.818 143.909 266.364C143.909 263.909 144.352 261.788 145.239 260C146.125 258.212 147.341 256.833 148.886 255.864C150.432 254.894 152.197 254.409 154.182 254.409C155.356 254.409 156.458 254.58 157.489 254.92C158.527 255.261 159.462 255.761 160.295 256.42C161.129 257.072 161.826 257.867 162.386 258.807C162.947 259.739 163.333 260.803 163.545 262ZM167.69 278V275.955L175.372 267.545C176.274 266.561 177.016 265.705 177.599 264.977C178.183 264.242 178.615 263.553 178.895 262.909C179.183 262.258 179.327 261.576 179.327 260.864C179.327 260.045 179.13 259.337 178.736 258.739C178.349 258.14 177.819 257.678 177.145 257.352C176.471 257.027 175.713 256.864 174.872 256.864C173.978 256.864 173.198 257.049 172.531 257.42C171.872 257.784 171.361 258.295 170.997 258.955C170.641 259.614 170.463 260.386 170.463 261.273H167.781C167.781 259.909 168.096 258.712 168.724 257.682C169.353 256.652 170.209 255.848 171.293 255.273C172.384 254.697 173.607 254.409 174.963 254.409C176.327 254.409 177.535 254.697 178.588 255.273C179.641 255.848 180.467 256.625 181.065 257.602C181.664 258.58 181.963 259.667 181.963 260.864C181.963 261.72 181.808 262.557 181.497 263.375C181.194 264.186 180.664 265.091 179.906 266.091C179.156 267.083 178.115 268.295 176.781 269.727L171.554 275.318V275.5H182.372V278H167.69Z" fill="black"/>
<rect x="19" y="124" width="85" height="86" fill="white"/>
<rect x="414" y="124" width="85" height="86" fill="white"/>
<rect x="317" y="124" width="85" height="86" fill="white"/>
<rect x="220" y="124" width="85" height="86" fill="white"/>
<rect x="123" y="124" width="85" height="86" fill="white"/>
<path d="M47.8182 178V154.727H55.9545C57.5758 154.727 58.9129 155.008 59.9659 155.568C61.0189 156.121 61.803 156.867 62.3182 157.807C62.8333 158.739 63.0909 159.773 63.0909 160.909C63.0909 161.909 62.9129 162.735 62.5568 163.386C62.2083 164.038 61.7462 164.553 61.1705 164.932C60.6023 165.311 59.9848 165.591 59.3182 165.773V166C60.0303 166.045 60.7462 166.295 61.4659 166.75C62.1856 167.205 62.7879 167.856 63.2727 168.705C63.7576 169.553 64 170.591 64 171.818C64 172.985 63.7348 174.034 63.2045 174.966C62.6742 175.898 61.8371 176.636 60.6932 177.182C59.5492 177.727 58.0606 178 56.2273 178H47.8182ZM50.6364 175.5H56.2273C58.0682 175.5 59.375 175.144 60.1477 174.432C60.928 173.712 61.3182 172.841 61.3182 171.818C61.3182 171.03 61.1174 170.303 60.7159 169.636C60.3144 168.962 59.7424 168.424 59 168.023C58.2576 167.614 57.3788 167.409 56.3636 167.409H50.6364V175.5ZM50.6364 164.955H55.8636C56.7121 164.955 57.4773 164.788 58.1591 164.455C58.8485 164.121 59.3939 163.652 59.7955 163.045C60.2045 162.439 60.4091 161.727 60.4091 160.909C60.4091 159.886 60.053 159.019 59.3409 158.307C58.6288 157.587 57.5 157.227 55.9545 157.227H50.6364V164.955ZM76.4034 154.727V178H73.5852V157.682H73.4489L67.767 161.455V158.591L73.5852 154.727H76.4034Z" fill="black"/>
<path d="M438.818 178V154.727H446.955C448.576 154.727 449.913 155.008 450.966 155.568C452.019 156.121 452.803 156.867 453.318 157.807C453.833 158.739 454.091 159.773 454.091 160.909C454.091 161.909 453.913 162.735 453.557 163.386C453.208 164.038 452.746 164.553 452.17 164.932C451.602 165.311 450.985 165.591 450.318 165.773V166C451.03 166.045 451.746 166.295 452.466 166.75C453.186 167.205 453.788 167.856 454.273 168.705C454.758 169.553 455 170.591 455 171.818C455 172.985 454.735 174.034 454.205 174.966C453.674 175.898 452.837 176.636 451.693 177.182C450.549 177.727 449.061 178 447.227 178H438.818ZM441.636 175.5H447.227C449.068 175.5 450.375 175.144 451.148 174.432C451.928 173.712 452.318 172.841 452.318 171.818C452.318 171.03 452.117 170.303 451.716 169.636C451.314 168.962 450.742 168.424 450 168.023C449.258 167.614 448.379 167.409 447.364 167.409H441.636V175.5ZM441.636 164.955H446.864C447.712 164.955 448.477 164.788 449.159 164.455C449.848 164.121 450.394 163.652 450.795 163.045C451.205 162.439 451.409 161.727 451.409 160.909C451.409 159.886 451.053 159.019 450.341 158.307C449.629 157.587 448.5 157.227 446.955 157.227H441.636V164.955ZM466.494 178.318C465.161 178.318 463.96 178.053 462.892 177.523C461.824 176.992 460.968 176.265 460.324 175.341C459.68 174.417 459.328 173.364 459.267 172.182H461.994C462.1 173.235 462.578 174.106 463.426 174.795C464.282 175.477 465.305 175.818 466.494 175.818C467.449 175.818 468.297 175.595 469.04 175.148C469.79 174.701 470.377 174.087 470.801 173.307C471.233 172.519 471.449 171.629 471.449 170.636C471.449 169.621 471.225 168.716 470.778 167.92C470.339 167.117 469.733 166.485 468.96 166.023C468.188 165.561 467.305 165.326 466.312 165.318C465.6 165.311 464.869 165.42 464.119 165.648C463.369 165.867 462.752 166.152 462.267 166.5L459.631 166.182L461.04 154.727H473.131V157.227H463.403L462.585 164.091H462.722C463.199 163.712 463.797 163.398 464.517 163.148C465.237 162.898 465.987 162.773 466.767 162.773C468.191 162.773 469.46 163.114 470.574 163.795C471.695 164.47 472.574 165.394 473.21 166.568C473.854 167.742 474.176 169.083 474.176 170.591C474.176 172.076 473.843 173.402 473.176 174.568C472.517 175.727 471.608 176.644 470.449 177.318C469.29 177.985 467.972 178.318 466.494 178.318Z" fill="black"/>
<path d="M341.818 178V154.727H349.955C351.576 154.727 352.913 155.008 353.966 155.568C355.019 156.121 355.803 156.867 356.318 157.807C356.833 158.739 357.091 159.773 357.091 160.909C357.091 161.909 356.913 162.735 356.557 163.386C356.208 164.038 355.746 164.553 355.17 164.932C354.602 165.311 353.985 165.591 353.318 165.773V166C354.03 166.045 354.746 166.295 355.466 166.75C356.186 167.205 356.788 167.856 357.273 168.705C357.758 169.553 358 170.591 358 171.818C358 172.985 357.735 174.034 357.205 174.966C356.674 175.898 355.837 176.636 354.693 177.182C353.549 177.727 352.061 178 350.227 178H341.818ZM344.636 175.5H350.227C352.068 175.5 353.375 175.144 354.148 174.432C354.928 173.712 355.318 172.841 355.318 171.818C355.318 171.03 355.117 170.303 354.716 169.636C354.314 168.962 353.742 168.424 353 168.023C352.258 167.614 351.379 167.409 350.364 167.409H344.636V175.5ZM344.636 164.955H349.864C350.712 164.955 351.477 164.788 352.159 164.455C352.848 164.121 353.394 163.652 353.795 163.045C354.205 162.439 354.409 161.727 354.409 160.909C354.409 159.886 354.053 159.019 353.341 158.307C352.629 157.587 351.5 157.227 349.955 157.227H344.636V164.955ZM361.676 173.227V170.909L371.903 154.727H373.585V158.318H372.449L364.722 170.545V170.727H378.494V173.227H361.676ZM372.631 178V172.523V171.443V154.727H375.312V178H372.631Z" fill="black"/>
<path d="M242.818 178V154.727H250.955C252.576 154.727 253.913 155.008 254.966 155.568C256.019 156.121 256.803 156.867 257.318 157.807C257.833 158.739 258.091 159.773 258.091 160.909C258.091 161.909 257.913 162.735 257.557 163.386C257.208 164.038 256.746 164.553 256.17 164.932C255.602 165.311 254.985 165.591 254.318 165.773V166C255.03 166.045 255.746 166.295 256.466 166.75C257.186 167.205 257.788 167.856 258.273 168.705C258.758 169.553 259 170.591 259 171.818C259 172.985 258.735 174.034 258.205 174.966C257.674 175.898 256.837 176.636 255.693 177.182C254.549 177.727 253.061 178 251.227 178H242.818ZM245.636 175.5H251.227C253.068 175.5 254.375 175.144 255.148 174.432C255.928 173.712 256.318 172.841 256.318 171.818C256.318 171.03 256.117 170.303 255.716 169.636C255.314 168.962 254.742 168.424 254 168.023C253.258 167.614 252.379 167.409 251.364 167.409H245.636V175.5ZM245.636 164.955H250.864C251.712 164.955 252.477 164.788 253.159 164.455C253.848 164.121 254.394 163.652 254.795 163.045C255.205 162.439 255.409 161.727 255.409 160.909C255.409 159.886 255.053 159.019 254.341 158.307C253.629 157.587 252.5 157.227 250.955 157.227H245.636V164.955ZM271.085 178.318C269.585 178.318 268.248 178.061 267.074 177.545C265.907 177.03 264.979 176.314 264.29 175.398C263.608 174.473 263.237 173.402 263.176 172.182H266.04C266.1 172.932 266.358 173.58 266.812 174.125C267.267 174.663 267.862 175.08 268.597 175.375C269.331 175.67 270.146 175.818 271.04 175.818C272.04 175.818 272.926 175.644 273.699 175.295C274.472 174.947 275.078 174.462 275.517 173.841C275.956 173.22 276.176 172.5 276.176 171.682C276.176 170.826 275.964 170.072 275.54 169.42C275.116 168.761 274.494 168.246 273.676 167.875C272.858 167.504 271.858 167.318 270.676 167.318H268.812V164.818H270.676C271.6 164.818 272.411 164.652 273.108 164.318C273.813 163.985 274.362 163.515 274.756 162.909C275.157 162.303 275.358 161.591 275.358 160.773C275.358 159.985 275.184 159.299 274.835 158.716C274.487 158.133 273.994 157.678 273.358 157.352C272.729 157.027 271.987 156.864 271.131 156.864C270.328 156.864 269.57 157.011 268.858 157.307C268.153 157.595 267.578 158.015 267.131 158.568C266.684 159.114 266.441 159.773 266.403 160.545H263.676C263.722 159.326 264.089 158.258 264.778 157.341C265.468 156.417 266.369 155.697 267.483 155.182C268.604 154.667 269.835 154.409 271.176 154.409C272.616 154.409 273.85 154.701 274.881 155.284C275.911 155.86 276.703 156.621 277.256 157.568C277.809 158.515 278.085 159.538 278.085 160.636C278.085 161.947 277.741 163.064 277.051 163.989C276.369 164.913 275.441 165.553 274.267 165.909V166.091C275.737 166.333 276.884 166.958 277.71 167.966C278.536 168.966 278.949 170.205 278.949 171.682C278.949 172.947 278.604 174.083 277.915 175.091C277.233 176.091 276.301 176.879 275.119 177.455C273.938 178.03 272.593 178.318 271.085 178.318Z" fill="black"/>
<path d="M149.818 178V154.727H157.955C159.576 154.727 160.913 155.008 161.966 155.568C163.019 156.121 163.803 156.867 164.318 157.807C164.833 158.739 165.091 159.773 165.091 160.909C165.091 161.909 164.913 162.735 164.557 163.386C164.208 164.038 163.746 164.553 163.17 164.932C162.602 165.311 161.985 165.591 161.318 165.773V166C162.03 166.045 162.746 166.295 163.466 166.75C164.186 167.205 164.788 167.856 165.273 168.705C165.758 169.553 166 170.591 166 171.818C166 172.985 165.735 174.034 165.205 174.966C164.674 175.898 163.837 176.636 162.693 177.182C161.549 177.727 160.061 178 158.227 178H149.818ZM152.636 175.5H158.227C160.068 175.5 161.375 175.144 162.148 174.432C162.928 173.712 163.318 172.841 163.318 171.818C163.318 171.03 163.117 170.303 162.716 169.636C162.314 168.962 161.742 168.424 161 168.023C160.258 167.614 159.379 167.409 158.364 167.409H152.636V175.5ZM152.636 164.955H157.864C158.712 164.955 159.477 164.788 160.159 164.455C160.848 164.121 161.394 163.652 161.795 163.045C162.205 162.439 162.409 161.727 162.409 160.909C162.409 159.886 162.053 159.019 161.341 158.307C160.629 157.587 159.5 157.227 157.955 157.227H152.636V164.955ZM170.222 178V175.955L177.903 167.545C178.805 166.561 179.547 165.705 180.131 164.977C180.714 164.242 181.146 163.553 181.426 162.909C181.714 162.258 181.858 161.576 181.858 160.864C181.858 160.045 181.661 159.337 181.267 158.739C180.881 158.14 180.35 157.678 179.676 157.352C179.002 157.027 178.244 156.864 177.403 156.864C176.509 156.864 175.729 157.049 175.062 157.42C174.403 157.784 173.892 158.295 173.528 158.955C173.172 159.614 172.994 160.386 172.994 161.273H170.312C170.312 159.909 170.627 158.712 171.256 157.682C171.884 156.652 172.741 155.848 173.824 155.273C174.915 154.697 176.138 154.409 177.494 154.409C178.858 154.409 180.066 154.697 181.119 155.273C182.172 155.848 182.998 156.625 183.597 157.602C184.195 158.58 184.494 159.667 184.494 160.864C184.494 161.72 184.339 162.557 184.028 163.375C183.725 164.186 183.195 165.091 182.438 166.091C181.688 167.083 180.646 168.295 179.312 169.727L174.085 175.318V175.5H184.903V178H170.222Z" fill="black"/>
<defs>
<linearGradient id="paint0_linear_2_2" x1="0" y1="270.5" x2="518" y2="270.5" gradientUnits="userSpaceOnUse">
<stop stop-color="#A1C4FD"/>
<stop offset="1" stop-color="#C2E9FB"/>
</linearGradient>
</defs>
</svg>
