<svg width="518" height="587" viewBox="0 0 518 587" fill="none" xmlns="http://www.w3.org/2000/svg">
<rect width="518" height="587" fill="url(#paint0_linear_2_5)"/>
<rect x="19" y="70" width="85" height="86" fill="white"/>
<rect x="75" y="12" width="367" height="43" fill="white"/>
<rect x="414" y="70" width="85" height="86" fill="white"/>
<rect x="317" y="70" width="85" height="86" fill="white"/>
<rect x="220" y="70" width="85" height="86" fill="white"/>
<rect x="123" y="70" width="85" height="86" fill="white"/>
<path d="M48.7727 124H45.8182L54.3636 100.727H57.2727L65.8182 124H62.8636L55.9091 104.409H55.7273L48.7727 124ZM49.8636 114.909H61.7727V117.409H49.8636V114.909ZM76.1222 100.727V124H73.304V103.682H73.1676L67.4858 107.455V104.591L73.304 100.727H76.1222Z" fill="black"/>
<path d="M192.736 25.696H194.848V30.4C194.848 36.416 191.168 42.624 186.656 44.928L185.12 42.816C189.248 40.8 192.736 35.296 192.736 30.4V25.696ZM193.216 25.696H195.328V30.4C195.328 34.976 198.592 40.128 202.784 42.112L201.28 44.224C196.704 41.952 193.216 36.128 193.216 30.4V25.696ZM186.144 24.512H201.728V26.752H186.144V24.512ZM205.152 21.568H207.84V50.496H205.152V21.568ZM207.2 33.248H212.576V35.488H207.2V33.248ZM236.094 21.536H238.75V50.528H236.094V21.536ZM216.702 41.344H219.102C223.934 41.344 228.254 41.152 233.374 40.32L233.662 42.496C228.414 43.36 224.062 43.552 219.102 43.552H216.702V41.344ZM216.638 24.256H230.014V34.592H219.358V42.176H216.702V32.416H227.326V26.432H216.638V24.256ZM254.499 24.288H257.027V31.36H263.075V24.288H265.539V43.264H254.499V24.288ZM257.027 33.504V41.088H263.075V33.504H257.027ZM275.491 21.568H278.051V50.496H275.491V21.568ZM270.851 33.024H276.419V35.2H270.851V33.024ZM269.091 22.176H271.619V49.056H269.091V22.176ZM303.937 21.568H306.593V50.496H303.937V21.568ZM290.913 28.448H293.057V30.912C293.057 37.088 289.569 42.688 284.929 44.928L283.424 42.88C287.713 40.896 290.913 35.968 290.913 30.912V28.448ZM291.425 28.448H293.537V30.912C293.537 35.744 296.833 40.448 301.153 42.336L299.649 44.416C294.977 42.304 291.425 36.896 291.425 30.912V28.448ZM284.225 26.592H300.161V28.736H284.225V26.592ZM290.913 22.08H293.569V27.776H290.913V22.08ZM315.646 35.072H335.518V37.248H315.646V35.072ZM312.35 44.64H338.558V46.88H312.35V44.64ZM324.062 36H326.718V45.536H324.062V36ZM315.646 23.872H335.23V26.048H318.302V36.032H315.646V23.872Z" fill="black"/>
<path d="M441.773 124H438.818L447.364 100.727H450.273L458.818 124H455.864L448.909 104.409H448.727L441.773 124ZM442.864 114.909H454.773V117.409H442.864V114.909ZM469.307 124.318C467.973 124.318 466.773 124.053 465.705 123.523C464.636 122.992 463.78 122.265 463.136 121.341C462.492 120.417 462.14 119.364 462.08 118.182H464.807C464.913 119.235 465.39 120.106 466.239 120.795C467.095 121.477 468.117 121.818 469.307 121.818C470.261 121.818 471.11 121.595 471.852 121.148C472.602 120.701 473.189 120.087 473.614 119.307C474.045 118.519 474.261 117.629 474.261 116.636C474.261 115.621 474.038 114.716 473.591 113.92C473.152 113.117 472.545 112.485 471.773 112.023C471 111.561 470.117 111.326 469.125 111.318C468.413 111.311 467.682 111.42 466.932 111.648C466.182 111.867 465.564 112.152 465.08 112.5L462.443 112.182L463.852 100.727H475.943V103.227H466.216L465.398 110.091H465.534C466.011 109.712 466.61 109.398 467.33 109.148C468.049 108.898 468.799 108.773 469.58 108.773C471.004 108.773 472.273 109.114 473.386 109.795C474.508 110.47 475.386 111.394 476.023 112.568C476.667 113.742 476.989 115.083 476.989 116.591C476.989 118.076 476.655 119.402 475.989 120.568C475.33 121.727 474.42 122.644 473.261 123.318C472.102 123.985 470.784 124.318 469.307 124.318Z" fill="black"/>
<path d="M341.773 124H338.818L347.364 100.727H350.273L358.818 124H355.864L348.909 104.409H348.727L341.773 124ZM342.864 114.909H354.773V117.409H342.864V114.909ZM361.489 119.227V116.909L371.716 100.727H373.398V104.318H372.261L364.534 116.545V116.727H378.307V119.227H361.489ZM372.443 124V118.523V117.443V100.727H375.125V124H372.443Z" fill="black"/>
<path d="M247.773 124H244.818L253.364 100.727H256.273L264.818 124H261.864L254.909 104.409H254.727L247.773 124ZM248.864 114.909H260.773V117.409H248.864V114.909ZM275.898 124.318C274.398 124.318 273.061 124.061 271.886 123.545C270.72 123.03 269.792 122.314 269.102 121.398C268.42 120.473 268.049 119.402 267.989 118.182H270.852C270.913 118.932 271.17 119.58 271.625 120.125C272.08 120.663 272.674 121.08 273.409 121.375C274.144 121.67 274.958 121.818 275.852 121.818C276.852 121.818 277.739 121.644 278.511 121.295C279.284 120.947 279.89 120.462 280.33 119.841C280.769 119.22 280.989 118.5 280.989 117.682C280.989 116.826 280.777 116.072 280.352 115.42C279.928 114.761 279.307 114.246 278.489 113.875C277.67 113.504 276.67 113.318 275.489 113.318H273.625V110.818H275.489C276.413 110.818 277.223 110.652 277.92 110.318C278.625 109.985 279.174 109.515 279.568 108.909C279.97 108.303 280.17 107.591 280.17 106.773C280.17 105.985 279.996 105.299 279.648 104.716C279.299 104.133 278.807 103.678 278.17 103.352C277.542 103.027 276.799 102.864 275.943 102.864C275.14 102.864 274.383 103.011 273.67 103.307C272.966 103.595 272.39 104.015 271.943 104.568C271.496 105.114 271.254 105.773 271.216 106.545H268.489C268.534 105.326 268.902 104.258 269.591 103.341C270.28 102.417 271.182 101.697 272.295 101.182C273.417 100.667 274.648 100.409 275.989 100.409C277.428 100.409 278.663 100.701 279.693 101.284C280.723 101.86 281.515 102.621 282.068 103.568C282.621 104.515 282.898 105.538 282.898 106.636C282.898 107.947 282.553 109.064 281.864 109.989C281.182 110.913 280.254 111.553 279.08 111.909V112.091C280.549 112.333 281.697 112.958 282.523 113.966C283.348 114.966 283.761 116.205 283.761 117.682C283.761 118.947 283.417 120.083 282.727 121.091C282.045 122.091 281.114 122.879 279.932 123.455C278.75 124.03 277.405 124.318 275.898 124.318Z" fill="black"/>
<path d="M150.773 124H147.818L156.364 100.727H159.273L167.818 124H164.864L157.909 104.409H157.727L150.773 124ZM151.864 114.909H163.773V117.409H151.864V114.909ZM171.034 124V121.955L178.716 113.545C179.617 112.561 180.36 111.705 180.943 110.977C181.527 110.242 181.958 109.553 182.239 108.909C182.527 108.258 182.67 107.576 182.67 106.864C182.67 106.045 182.473 105.337 182.08 104.739C181.693 104.14 181.163 103.678 180.489 103.352C179.814 103.027 179.057 102.864 178.216 102.864C177.322 102.864 176.542 103.049 175.875 103.42C175.216 103.784 174.705 104.295 174.341 104.955C173.985 105.614 173.807 106.386 173.807 107.273H171.125C171.125 105.909 171.439 104.712 172.068 103.682C172.697 102.652 173.553 101.848 174.636 101.273C175.727 100.697 176.951 100.409 178.307 100.409C179.67 100.409 180.879 100.697 181.932 101.273C182.985 101.848 183.811 102.625 184.409 103.602C185.008 104.58 185.307 105.667 185.307 106.864C185.307 107.72 185.152 108.557 184.841 109.375C184.538 110.186 184.008 111.091 183.25 112.091C182.5 113.083 181.458 114.295 180.125 115.727L174.898 121.318V121.5H185.716V124H171.034Z" fill="black"/>
<rect x="19" y="470" width="85" height="86" fill="white"/>
<rect x="414" y="470" width="85" height="86" fill="white"/>
<rect x="317" y="470" width="85" height="86" fill="white"/>
<rect x="220" y="470" width="85" height="86" fill="white"/>
<rect x="123" y="470" width="85" height="86" fill="white"/>
<path d="M47.8182 524V500.727H61.8636V503.227H50.6364V511.091H61.1364V513.591H50.6364V521.5H62.0455V524H47.8182ZM74.7159 500.727V524H71.8977V503.682H71.7614L66.0795 507.455V504.591L71.8977 500.727H74.7159Z" fill="black"/>
<path d="M440.818 524V500.727H454.864V503.227H443.636V511.091H454.136V513.591H443.636V521.5H455.045V524H440.818ZM466.807 524.318C465.473 524.318 464.273 524.053 463.205 523.523C462.136 522.992 461.28 522.265 460.636 521.341C459.992 520.417 459.64 519.364 459.58 518.182H462.307C462.413 519.235 462.89 520.106 463.739 520.795C464.595 521.477 465.617 521.818 466.807 521.818C467.761 521.818 468.61 521.595 469.352 521.148C470.102 520.701 470.689 520.087 471.114 519.307C471.545 518.519 471.761 517.629 471.761 516.636C471.761 515.621 471.538 514.716 471.091 513.92C470.652 513.117 470.045 512.485 469.273 512.023C468.5 511.561 467.617 511.326 466.625 511.318C465.913 511.311 465.182 511.42 464.432 511.648C463.682 511.867 463.064 512.152 462.58 512.5L459.943 512.182L461.352 500.727H473.443V503.227H463.716L462.898 510.091H463.034C463.511 509.712 464.11 509.398 464.83 509.148C465.549 508.898 466.299 508.773 467.08 508.773C468.504 508.773 469.773 509.114 470.886 509.795C472.008 510.47 472.886 511.394 473.523 512.568C474.167 513.742 474.489 515.083 474.489 516.591C474.489 518.076 474.155 519.402 473.489 520.568C472.83 521.727 471.92 522.644 470.761 523.318C469.602 523.985 468.284 524.318 466.807 524.318Z" fill="black"/>
<path d="M341.818 524V500.727H355.864V503.227H344.636V511.091H355.136V513.591H344.636V521.5H356.045V524H341.818ZM359.989 519.227V516.909L370.216 500.727H371.898V504.318H370.761L363.034 516.545V516.727H376.807V519.227H359.989ZM370.943 524V518.523V517.443V500.727H373.625V524H370.943Z" fill="black"/>
<path d="M246.818 524V500.727H260.864V503.227H249.636V511.091H260.136V513.591H249.636V521.5H261.045V524H246.818ZM273.398 524.318C271.898 524.318 270.561 524.061 269.386 523.545C268.22 523.03 267.292 522.314 266.602 521.398C265.92 520.473 265.549 519.402 265.489 518.182H268.352C268.413 518.932 268.67 519.58 269.125 520.125C269.58 520.663 270.174 521.08 270.909 521.375C271.644 521.67 272.458 521.818 273.352 521.818C274.352 521.818 275.239 521.644 276.011 521.295C276.784 520.947 277.39 520.462 277.83 519.841C278.269 519.22 278.489 518.5 278.489 517.682C278.489 516.826 278.277 516.072 277.852 515.42C277.428 514.761 276.807 514.246 275.989 513.875C275.17 513.504 274.17 513.318 272.989 513.318H271.125V510.818H272.989C273.913 510.818 274.723 510.652 275.42 510.318C276.125 509.985 276.674 509.515 277.068 508.909C277.47 508.303 277.67 507.591 277.67 506.773C277.67 505.985 277.496 505.299 277.148 504.716C276.799 504.133 276.307 503.678 275.67 503.352C275.042 503.027 274.299 502.864 273.443 502.864C272.64 502.864 271.883 503.011 271.17 503.307C270.466 503.595 269.89 504.015 269.443 504.568C268.996 505.114 268.754 505.773 268.716 506.545H265.989C266.034 505.326 266.402 504.258 267.091 503.341C267.78 502.417 268.682 501.697 269.795 501.182C270.917 500.667 272.148 500.409 273.489 500.409C274.928 500.409 276.163 500.701 277.193 501.284C278.223 501.86 279.015 502.621 279.568 503.568C280.121 504.515 280.398 505.538 280.398 506.636C280.398 507.947 280.053 509.064 279.364 509.989C278.682 510.913 277.754 511.553 276.58 511.909V512.091C278.049 512.333 279.197 512.958 280.023 513.966C280.848 514.966 281.261 516.205 281.261 517.682C281.261 518.947 280.917 520.083 280.227 521.091C279.545 522.091 278.614 522.879 277.432 523.455C276.25 524.03 274.905 524.318 273.398 524.318Z" fill="black"/>
<path d="M149.818 524V500.727H163.864V503.227H152.636V511.091H163.136V513.591H152.636V521.5H164.045V524H149.818ZM168.534 524V521.955L176.216 513.545C177.117 512.561 177.86 511.705 178.443 510.977C179.027 510.242 179.458 509.553 179.739 508.909C180.027 508.258 180.17 507.576 180.17 506.864C180.17 506.045 179.973 505.337 179.58 504.739C179.193 504.14 178.663 503.678 177.989 503.352C177.314 503.027 176.557 502.864 175.716 502.864C174.822 502.864 174.042 503.049 173.375 503.42C172.716 503.784 172.205 504.295 171.841 504.955C171.485 505.614 171.307 506.386 171.307 507.273H168.625C168.625 505.909 168.939 504.712 169.568 503.682C170.197 502.652 171.053 501.848 172.136 501.273C173.227 500.697 174.451 500.409 175.807 500.409C177.17 500.409 178.379 500.697 179.432 501.273C180.485 501.848 181.311 502.625 181.909 503.602C182.508 504.58 182.807 505.667 182.807 506.864C182.807 507.72 182.652 508.557 182.341 509.375C182.038 510.186 181.508 511.091 180.75 512.091C180 513.083 178.958 514.295 177.625 515.727L172.398 521.318V521.5H183.216V524H168.534Z" fill="black"/>
<rect x="19" y="370" width="85" height="86" fill="white"/>
<rect x="414" y="370" width="85" height="86" fill="white"/>
<rect x="317" y="370" width="85" height="86" fill="white"/>
<rect x="220" y="370" width="85" height="86" fill="white"/>
<rect x="123" y="370" width="85" height="86" fill="white"/>
<path d="M50 424H42.8182V400.727H50.3182C52.5758 400.727 54.5076 401.193 56.1136 402.125C57.7197 403.049 58.9508 404.379 59.8068 406.114C60.6629 407.841 61.0909 409.909 61.0909 412.318C61.0909 414.742 60.6591 416.83 59.7955 418.58C58.9318 420.322 57.6742 421.663 56.0227 422.602C54.3712 423.534 52.3636 424 50 424ZM45.6364 421.5H49.8182C51.7424 421.5 53.3371 421.129 54.6023 420.386C55.8674 419.644 56.8106 418.587 57.4318 417.216C58.053 415.845 58.3636 414.212 58.3636 412.318C58.3636 410.439 58.0568 408.822 57.4432 407.466C56.8295 406.102 55.9129 405.057 54.6932 404.33C53.4735 403.595 51.9545 403.227 50.1364 403.227H45.6364V421.5ZM73.5909 400.727V424H70.7727V403.682H70.6364L64.9545 407.455V404.591L70.7727 400.727H73.5909Z" fill="black"/>
<path d="M448 424H440.818V400.727H448.318C450.576 400.727 452.508 401.193 454.114 402.125C455.72 403.049 456.951 404.379 457.807 406.114C458.663 407.841 459.091 409.909 459.091 412.318C459.091 414.742 458.659 416.83 457.795 418.58C456.932 420.322 455.674 421.663 454.023 422.602C452.371 423.534 450.364 424 448 424ZM443.636 421.5H447.818C449.742 421.5 451.337 421.129 452.602 420.386C453.867 419.644 454.811 418.587 455.432 417.216C456.053 415.845 456.364 414.212 456.364 412.318C456.364 410.439 456.057 408.822 455.443 407.466C454.83 406.102 453.913 405.057 452.693 404.33C451.473 403.595 449.955 403.227 448.136 403.227H443.636V421.5ZM470.682 424.318C469.348 424.318 468.148 424.053 467.08 423.523C466.011 422.992 465.155 422.265 464.511 421.341C463.867 420.417 463.515 419.364 463.455 418.182H466.182C466.288 419.235 466.765 420.106 467.614 420.795C468.47 421.477 469.492 421.818 470.682 421.818C471.636 421.818 472.485 421.595 473.227 421.148C473.977 420.701 474.564 420.087 474.989 419.307C475.42 418.519 475.636 417.629 475.636 416.636C475.636 415.621 475.413 414.716 474.966 413.92C474.527 413.117 473.92 412.485 473.148 412.023C472.375 411.561 471.492 411.326 470.5 411.318C469.788 411.311 469.057 411.42 468.307 411.648C467.557 411.867 466.939 412.152 466.455 412.5L463.818 412.182L465.227 400.727H477.318V403.227H467.591L466.773 410.091H466.909C467.386 409.712 467.985 409.398 468.705 409.148C469.424 408.898 470.174 408.773 470.955 408.773C472.379 408.773 473.648 409.114 474.761 409.795C475.883 410.47 476.761 411.394 477.398 412.568C478.042 413.742 478.364 415.083 478.364 416.591C478.364 418.076 478.03 419.402 477.364 420.568C476.705 421.727 475.795 422.644 474.636 423.318C473.477 423.985 472.159 424.318 470.682 424.318Z" fill="black"/>
<path d="M348 424H340.818V400.727H348.318C350.576 400.727 352.508 401.193 354.114 402.125C355.72 403.049 356.951 404.379 357.807 406.114C358.663 407.841 359.091 409.909 359.091 412.318C359.091 414.742 358.659 416.83 357.795 418.58C356.932 420.322 355.674 421.663 354.023 422.602C352.371 423.534 350.364 424 348 424ZM343.636 421.5H347.818C349.742 421.5 351.337 421.129 352.602 420.386C353.867 419.644 354.811 418.587 355.432 417.216C356.053 415.845 356.364 414.212 356.364 412.318C356.364 410.439 356.057 408.822 355.443 407.466C354.83 406.102 353.913 405.057 352.693 404.33C351.473 403.595 349.955 403.227 348.136 403.227H343.636V421.5ZM362.864 419.227V416.909L373.091 400.727H374.773V404.318H373.636L365.909 416.545V416.727H379.682V419.227H362.864ZM373.818 424V418.523V417.443V400.727H376.5V424H373.818Z" fill="black"/>
<path d="M250 424H242.818V400.727H250.318C252.576 400.727 254.508 401.193 256.114 402.125C257.72 403.049 258.951 404.379 259.807 406.114C260.663 407.841 261.091 409.909 261.091 412.318C261.091 414.742 260.659 416.83 259.795 418.58C258.932 420.322 257.674 421.663 256.023 422.602C254.371 423.534 252.364 424 250 424ZM245.636 421.5H249.818C251.742 421.5 253.337 421.129 254.602 420.386C255.867 419.644 256.811 418.587 257.432 417.216C258.053 415.845 258.364 414.212 258.364 412.318C258.364 410.439 258.057 408.822 257.443 407.466C256.83 406.102 255.913 405.057 254.693 404.33C253.473 403.595 251.955 403.227 250.136 403.227H245.636V421.5ZM273.273 424.318C271.773 424.318 270.436 424.061 269.261 423.545C268.095 423.03 267.167 422.314 266.477 421.398C265.795 420.473 265.424 419.402 265.364 418.182H268.227C268.288 418.932 268.545 419.58 269 420.125C269.455 420.663 270.049 421.08 270.784 421.375C271.519 421.67 272.333 421.818 273.227 421.818C274.227 421.818 275.114 421.644 275.886 421.295C276.659 420.947 277.265 420.462 277.705 419.841C278.144 419.22 278.364 418.5 278.364 417.682C278.364 416.826 278.152 416.072 277.727 415.42C277.303 414.761 276.682 414.246 275.864 413.875C275.045 413.504 274.045 413.318 272.864 413.318H271V410.818H272.864C273.788 410.818 274.598 410.652 275.295 410.318C276 409.985 276.549 409.515 276.943 408.909C277.345 408.303 277.545 407.591 277.545 406.773C277.545 405.985 277.371 405.299 277.023 404.716C276.674 404.133 276.182 403.678 275.545 403.352C274.917 403.027 274.174 402.864 273.318 402.864C272.515 402.864 271.758 403.011 271.045 403.307C270.341 403.595 269.765 404.015 269.318 404.568C268.871 405.114 268.629 405.773 268.591 406.545H265.864C265.909 405.326 266.277 404.258 266.966 403.341C267.655 402.417 268.557 401.697 269.67 401.182C270.792 400.667 272.023 400.409 273.364 400.409C274.803 400.409 276.038 400.701 277.068 401.284C278.098 401.86 278.89 402.621 279.443 403.568C279.996 404.515 280.273 405.538 280.273 406.636C280.273 407.947 279.928 409.064 279.239 409.989C278.557 410.913 277.629 411.553 276.455 411.909V412.091C277.924 412.333 279.072 412.958 279.898 413.966C280.723 414.966 281.136 416.205 281.136 417.682C281.136 418.947 280.792 420.083 280.102 421.091C279.42 422.091 278.489 422.879 277.307 423.455C276.125 424.03 274.78 424.318 273.273 424.318Z" fill="black"/>
<path d="M157 424H149.818V400.727H157.318C159.576 400.727 161.508 401.193 163.114 402.125C164.72 403.049 165.951 404.379 166.807 406.114C167.663 407.841 168.091 409.909 168.091 412.318C168.091 414.742 167.659 416.83 166.795 418.58C165.932 420.322 164.674 421.663 163.023 422.602C161.371 423.534 159.364 424 157 424ZM152.636 421.5H156.818C158.742 421.5 160.337 421.129 161.602 420.386C162.867 419.644 163.811 418.587 164.432 417.216C165.053 415.845 165.364 414.212 165.364 412.318C165.364 410.439 165.057 408.822 164.443 407.466C163.83 406.102 162.913 405.057 161.693 404.33C160.473 403.595 158.955 403.227 157.136 403.227H152.636V421.5ZM172.409 424V421.955L180.091 413.545C180.992 412.561 181.735 411.705 182.318 410.977C182.902 410.242 183.333 409.553 183.614 408.909C183.902 408.258 184.045 407.576 184.045 406.864C184.045 406.045 183.848 405.337 183.455 404.739C183.068 404.14 182.538 403.678 181.864 403.352C181.189 403.027 180.432 402.864 179.591 402.864C178.697 402.864 177.917 403.049 177.25 403.42C176.591 403.784 176.08 404.295 175.716 404.955C175.36 405.614 175.182 406.386 175.182 407.273H172.5C172.5 405.909 172.814 404.712 173.443 403.682C174.072 402.652 174.928 401.848 176.011 401.273C177.102 400.697 178.326 400.409 179.682 400.409C181.045 400.409 182.254 400.697 183.307 401.273C184.36 401.848 185.186 402.625 185.784 403.602C186.383 404.58 186.682 405.667 186.682 406.864C186.682 407.72 186.527 408.557 186.216 409.375C185.913 410.186 185.383 411.091 184.625 412.091C183.875 413.083 182.833 414.295 181.5 415.727L176.273 421.318V421.5H187.091V424H172.409Z" fill="black"/>
<rect x="19" y="270" width="85" height="86" fill="white"/>
<rect x="414" y="270" width="85" height="86" fill="white"/>
<rect x="317" y="270" width="85" height="86" fill="white"/>
<rect x="220" y="270" width="85" height="86" fill="white"/>
<rect x="123" y="270" width="85" height="86" fill="white"/>
<path d="M61.5455 308H58.7273C58.5606 307.189 58.2689 306.477 57.8523 305.864C57.4432 305.25 56.9432 304.735 56.3523 304.318C55.7689 303.894 55.1212 303.576 54.4091 303.364C53.697 303.152 52.9545 303.045 52.1818 303.045C50.7727 303.045 49.4962 303.402 48.3523 304.114C47.2159 304.826 46.3106 305.875 45.6364 307.261C44.9697 308.648 44.6364 310.348 44.6364 312.364C44.6364 314.379 44.9697 316.08 45.6364 317.466C46.3106 318.852 47.2159 319.902 48.3523 320.614C49.4962 321.326 50.7727 321.682 52.1818 321.682C52.9545 321.682 53.697 321.576 54.4091 321.364C55.1212 321.152 55.7689 320.837 56.3523 320.42C56.9432 319.996 57.4432 319.477 57.8523 318.864C58.2689 318.242 58.5606 317.53 58.7273 316.727H61.5455C61.3333 317.917 60.947 318.981 60.3864 319.92C59.8258 320.86 59.1288 321.659 58.2955 322.318C57.4621 322.97 56.5265 323.466 55.4886 323.807C54.4583 324.148 53.3561 324.318 52.1818 324.318C50.197 324.318 48.4318 323.833 46.8864 322.864C45.3409 321.894 44.125 320.515 43.2386 318.727C42.3523 316.939 41.9091 314.818 41.9091 312.364C41.9091 309.909 42.3523 307.788 43.2386 306C44.125 304.212 45.3409 302.833 46.8864 301.864C48.4318 300.894 50.197 300.409 52.1818 300.409C53.3561 300.409 54.4583 300.58 55.4886 300.92C56.5265 301.261 57.4621 301.761 58.2955 302.42C59.1288 303.072 59.8258 303.867 60.3864 304.807C60.947 305.739 61.3333 306.803 61.5455 308ZM73.8722 300.727V324H71.054V303.682H70.9176L65.2358 307.455V304.591L71.054 300.727H73.8722Z" fill="black"/>
<path d="M454.545 308H451.727C451.561 307.189 451.269 306.477 450.852 305.864C450.443 305.25 449.943 304.735 449.352 304.318C448.769 303.894 448.121 303.576 447.409 303.364C446.697 303.152 445.955 303.045 445.182 303.045C443.773 303.045 442.496 303.402 441.352 304.114C440.216 304.826 439.311 305.875 438.636 307.261C437.97 308.648 437.636 310.348 437.636 312.364C437.636 314.379 437.97 316.08 438.636 317.466C439.311 318.852 440.216 319.902 441.352 320.614C442.496 321.326 443.773 321.682 445.182 321.682C445.955 321.682 446.697 321.576 447.409 321.364C448.121 321.152 448.769 320.837 449.352 320.42C449.943 319.996 450.443 319.477 450.852 318.864C451.269 318.242 451.561 317.53 451.727 316.727H454.545C454.333 317.917 453.947 318.981 453.386 319.92C452.826 320.86 452.129 321.659 451.295 322.318C450.462 322.97 449.527 323.466 448.489 323.807C447.458 324.148 446.356 324.318 445.182 324.318C443.197 324.318 441.432 323.833 439.886 322.864C438.341 321.894 437.125 320.515 436.239 318.727C435.352 316.939 434.909 314.818 434.909 312.364C434.909 309.909 435.352 307.788 436.239 306C437.125 304.212 438.341 302.833 439.886 301.864C441.432 300.894 443.197 300.409 445.182 300.409C446.356 300.409 447.458 300.58 448.489 300.92C449.527 301.261 450.462 301.761 451.295 302.42C452.129 303.072 452.826 303.867 453.386 304.807C453.947 305.739 454.333 306.803 454.545 308ZM465.963 324.318C464.63 324.318 463.429 324.053 462.361 323.523C461.293 322.992 460.437 322.265 459.793 321.341C459.149 320.417 458.796 319.364 458.736 318.182H461.463C461.569 319.235 462.046 320.106 462.895 320.795C463.751 321.477 464.774 321.818 465.963 321.818C466.918 321.818 467.766 321.595 468.509 321.148C469.259 320.701 469.846 320.087 470.27 319.307C470.702 318.519 470.918 317.629 470.918 316.636C470.918 315.621 470.694 314.716 470.247 313.92C469.808 313.117 469.202 312.485 468.429 312.023C467.656 311.561 466.774 311.326 465.781 311.318C465.069 311.311 464.338 311.42 463.588 311.648C462.838 311.867 462.221 312.152 461.736 312.5L459.099 312.182L460.509 300.727H472.599V303.227H462.872L462.054 310.091H462.19C462.668 309.712 463.266 309.398 463.986 309.148C464.705 308.898 465.455 308.773 466.236 308.773C467.66 308.773 468.929 309.114 470.043 309.795C471.164 310.47 472.043 311.394 472.679 312.568C473.323 313.742 473.645 315.083 473.645 316.591C473.645 318.076 473.312 319.402 472.645 320.568C471.986 321.727 471.077 322.644 469.918 323.318C468.759 323.985 467.44 324.318 465.963 324.318Z" fill="black"/>
<path d="M357.545 308H354.727C354.561 307.189 354.269 306.477 353.852 305.864C353.443 305.25 352.943 304.735 352.352 304.318C351.769 303.894 351.121 303.576 350.409 303.364C349.697 303.152 348.955 303.045 348.182 303.045C346.773 303.045 345.496 303.402 344.352 304.114C343.216 304.826 342.311 305.875 341.636 307.261C340.97 308.648 340.636 310.348 340.636 312.364C340.636 314.379 340.97 316.08 341.636 317.466C342.311 318.852 343.216 319.902 344.352 320.614C345.496 321.326 346.773 321.682 348.182 321.682C348.955 321.682 349.697 321.576 350.409 321.364C351.121 321.152 351.769 320.837 352.352 320.42C352.943 319.996 353.443 319.477 353.852 318.864C354.269 318.242 354.561 317.53 354.727 316.727H357.545C357.333 317.917 356.947 318.981 356.386 319.92C355.826 320.86 355.129 321.659 354.295 322.318C353.462 322.97 352.527 323.466 351.489 323.807C350.458 324.148 349.356 324.318 348.182 324.318C346.197 324.318 344.432 323.833 342.886 322.864C341.341 321.894 340.125 320.515 339.239 318.727C338.352 316.939 337.909 314.818 337.909 312.364C337.909 309.909 338.352 307.788 339.239 306C340.125 304.212 341.341 302.833 342.886 301.864C344.432 300.894 346.197 300.409 348.182 300.409C349.356 300.409 350.458 300.58 351.489 300.92C352.527 301.261 353.462 301.761 354.295 302.42C355.129 303.072 355.826 303.867 356.386 304.807C356.947 305.739 357.333 306.803 357.545 308ZM361.145 319.227V316.909L371.372 300.727H373.054V304.318H371.918L364.19 316.545V316.727H377.963V319.227H361.145ZM372.099 324V318.523V317.443V300.727H374.781V324H372.099Z" fill="black"/>
<path d="M261.545 308H258.727C258.561 307.189 258.269 306.477 257.852 305.864C257.443 305.25 256.943 304.735 256.352 304.318C255.769 303.894 255.121 303.576 254.409 303.364C253.697 303.152 252.955 303.045 252.182 303.045C250.773 303.045 249.496 303.402 248.352 304.114C247.216 304.826 246.311 305.875 245.636 307.261C244.97 308.648 244.636 310.348 244.636 312.364C244.636 314.379 244.97 316.08 245.636 317.466C246.311 318.852 247.216 319.902 248.352 320.614C249.496 321.326 250.773 321.682 252.182 321.682C252.955 321.682 253.697 321.576 254.409 321.364C255.121 321.152 255.769 320.837 256.352 320.42C256.943 319.996 257.443 319.477 257.852 318.864C258.269 318.242 258.561 317.53 258.727 316.727H261.545C261.333 317.917 260.947 318.981 260.386 319.92C259.826 320.86 259.129 321.659 258.295 322.318C257.462 322.97 256.527 323.466 255.489 323.807C254.458 324.148 253.356 324.318 252.182 324.318C250.197 324.318 248.432 323.833 246.886 322.864C245.341 321.894 244.125 320.515 243.239 318.727C242.352 316.939 241.909 314.818 241.909 312.364C241.909 309.909 242.352 307.788 243.239 306C244.125 304.212 245.341 302.833 246.886 301.864C248.432 300.894 250.197 300.409 252.182 300.409C253.356 300.409 254.458 300.58 255.489 300.92C256.527 301.261 257.462 301.761 258.295 302.42C259.129 303.072 259.826 303.867 260.386 304.807C260.947 305.739 261.333 306.803 261.545 308ZM273.554 324.318C272.054 324.318 270.717 324.061 269.543 323.545C268.376 323.03 267.448 322.314 266.759 321.398C266.077 320.473 265.705 319.402 265.645 318.182H268.509C268.569 318.932 268.827 319.58 269.281 320.125C269.736 320.663 270.33 321.08 271.065 321.375C271.8 321.67 272.615 321.818 273.509 321.818C274.509 321.818 275.395 321.644 276.168 321.295C276.94 320.947 277.546 320.462 277.986 319.841C278.425 319.22 278.645 318.5 278.645 317.682C278.645 316.826 278.433 316.072 278.009 315.42C277.584 314.761 276.963 314.246 276.145 313.875C275.327 313.504 274.327 313.318 273.145 313.318H271.281V310.818H273.145C274.069 310.818 274.88 310.652 275.577 310.318C276.281 309.985 276.83 309.515 277.224 308.909C277.626 308.303 277.827 307.591 277.827 306.773C277.827 305.985 277.652 305.299 277.304 304.716C276.955 304.133 276.463 303.678 275.827 303.352C275.198 303.027 274.455 302.864 273.599 302.864C272.796 302.864 272.039 303.011 271.327 303.307C270.622 303.595 270.046 304.015 269.599 304.568C269.152 305.114 268.91 305.773 268.872 306.545H266.145C266.19 305.326 266.558 304.258 267.247 303.341C267.937 302.417 268.838 301.697 269.952 301.182C271.073 300.667 272.304 300.409 273.645 300.409C275.084 300.409 276.319 300.701 277.349 301.284C278.38 301.86 279.171 302.621 279.724 303.568C280.277 304.515 280.554 305.538 280.554 306.636C280.554 307.947 280.209 309.064 279.52 309.989C278.838 310.913 277.91 311.553 276.736 311.909V312.091C278.205 312.333 279.353 312.958 280.179 313.966C281.005 314.966 281.418 316.205 281.418 317.682C281.418 318.947 281.073 320.083 280.384 321.091C279.702 322.091 278.77 322.879 277.588 323.455C276.406 324.03 275.062 324.318 273.554 324.318Z" fill="black"/>
<path d="M163.545 308H160.727C160.561 307.189 160.269 306.477 159.852 305.864C159.443 305.25 158.943 304.735 158.352 304.318C157.769 303.894 157.121 303.576 156.409 303.364C155.697 303.152 154.955 303.045 154.182 303.045C152.773 303.045 151.496 303.402 150.352 304.114C149.216 304.826 148.311 305.875 147.636 307.261C146.97 308.648 146.636 310.348 146.636 312.364C146.636 314.379 146.97 316.08 147.636 317.466C148.311 318.852 149.216 319.902 150.352 320.614C151.496 321.326 152.773 321.682 154.182 321.682C154.955 321.682 155.697 321.576 156.409 321.364C157.121 321.152 157.769 320.837 158.352 320.42C158.943 319.996 159.443 319.477 159.852 318.864C160.269 318.242 160.561 317.53 160.727 316.727H163.545C163.333 317.917 162.947 318.981 162.386 319.92C161.826 320.86 161.129 321.659 160.295 322.318C159.462 322.97 158.527 323.466 157.489 323.807C156.458 324.148 155.356 324.318 154.182 324.318C152.197 324.318 150.432 323.833 148.886 322.864C147.341 321.894 146.125 320.515 145.239 318.727C144.352 316.939 143.909 314.818 143.909 312.364C143.909 309.909 144.352 307.788 145.239 306C146.125 304.212 147.341 302.833 148.886 301.864C150.432 300.894 152.197 300.409 154.182 300.409C155.356 300.409 156.458 300.58 157.489 300.92C158.527 301.261 159.462 301.761 160.295 302.42C161.129 303.072 161.826 303.867 162.386 304.807C162.947 305.739 163.333 306.803 163.545 308ZM167.69 324V321.955L175.372 313.545C176.274 312.561 177.016 311.705 177.599 310.977C178.183 310.242 178.615 309.553 178.895 308.909C179.183 308.258 179.327 307.576 179.327 306.864C179.327 306.045 179.13 305.337 178.736 304.739C178.349 304.14 177.819 303.678 177.145 303.352C176.471 303.027 175.713 302.864 174.872 302.864C173.978 302.864 173.198 303.049 172.531 303.42C171.872 303.784 171.361 304.295 170.997 304.955C170.641 305.614 170.463 306.386 170.463 307.273H167.781C167.781 305.909 168.096 304.712 168.724 303.682C169.353 302.652 170.209 301.848 171.293 301.273C172.384 300.697 173.607 300.409 174.963 300.409C176.327 300.409 177.535 300.697 178.588 301.273C179.641 301.848 180.467 302.625 181.065 303.602C181.664 304.58 181.963 305.667 181.963 306.864C181.963 307.72 181.808 308.557 181.497 309.375C181.194 310.186 180.664 311.091 179.906 312.091C179.156 313.083 178.115 314.295 176.781 315.727L171.554 321.318V321.5H182.372V324H167.69Z" fill="black"/>
<rect x="19" y="170" width="85" height="86" fill="white"/>
<rect x="414" y="170" width="85" height="86" fill="white"/>
<rect x="317" y="170" width="85" height="86" fill="white"/>
<rect x="220" y="170" width="85" height="86" fill="white"/>
<rect x="123" y="170" width="85" height="86" fill="white"/>
<path d="M47.8182 224V200.727H55.9545C57.5758 200.727 58.9129 201.008 59.9659 201.568C61.0189 202.121 61.803 202.867 62.3182 203.807C62.8333 204.739 63.0909 205.773 63.0909 206.909C63.0909 207.909 62.9129 208.735 62.5568 209.386C62.2083 210.038 61.7462 210.553 61.1705 210.932C60.6023 211.311 59.9848 211.591 59.3182 211.773V212C60.0303 212.045 60.7462 212.295 61.4659 212.75C62.1856 213.205 62.7879 213.856 63.2727 214.705C63.7576 215.553 64 216.591 64 217.818C64 218.985 63.7348 220.034 63.2045 220.966C62.6742 221.898 61.8371 222.636 60.6932 223.182C59.5492 223.727 58.0606 224 56.2273 224H47.8182ZM50.6364 221.5H56.2273C58.0682 221.5 59.375 221.144 60.1477 220.432C60.928 219.712 61.3182 218.841 61.3182 217.818C61.3182 217.03 61.1174 216.303 60.7159 215.636C60.3144 214.962 59.7424 214.424 59 214.023C58.2576 213.614 57.3788 213.409 56.3636 213.409H50.6364V221.5ZM50.6364 210.955H55.8636C56.7121 210.955 57.4773 210.788 58.1591 210.455C58.8485 210.121 59.3939 209.652 59.7955 209.045C60.2045 208.439 60.4091 207.727 60.4091 206.909C60.4091 205.886 60.053 205.019 59.3409 204.307C58.6288 203.587 57.5 203.227 55.9545 203.227H50.6364V210.955ZM76.4034 200.727V224H73.5852V203.682H73.4489L67.767 207.455V204.591L73.5852 200.727H76.4034Z" fill="black"/>
<path d="M438.818 224V200.727H446.955C448.576 200.727 449.913 201.008 450.966 201.568C452.019 202.121 452.803 202.867 453.318 203.807C453.833 204.739 454.091 205.773 454.091 206.909C454.091 207.909 453.913 208.735 453.557 209.386C453.208 210.038 452.746 210.553 452.17 210.932C451.602 211.311 450.985 211.591 450.318 211.773V212C451.03 212.045 451.746 212.295 452.466 212.75C453.186 213.205 453.788 213.856 454.273 214.705C454.758 215.553 455 216.591 455 217.818C455 218.985 454.735 220.034 454.205 220.966C453.674 221.898 452.837 222.636 451.693 223.182C450.549 223.727 449.061 224 447.227 224H438.818ZM441.636 221.5H447.227C449.068 221.5 450.375 221.144 451.148 220.432C451.928 219.712 452.318 218.841 452.318 217.818C452.318 217.03 452.117 216.303 451.716 215.636C451.314 214.962 450.742 214.424 450 214.023C449.258 213.614 448.379 213.409 447.364 213.409H441.636V221.5ZM441.636 210.955H446.864C447.712 210.955 448.477 210.788 449.159 210.455C449.848 210.121 450.394 209.652 450.795 209.045C451.205 208.439 451.409 207.727 451.409 206.909C451.409 205.886 451.053 205.019 450.341 204.307C449.629 203.587 448.5 203.227 446.955 203.227H441.636V210.955ZM466.494 224.318C465.161 224.318 463.96 224.053 462.892 223.523C461.824 222.992 460.968 222.265 460.324 221.341C459.68 220.417 459.328 219.364 459.267 218.182H461.994C462.1 219.235 462.578 220.106 463.426 220.795C464.282 221.477 465.305 221.818 466.494 221.818C467.449 221.818 468.297 221.595 469.04 221.148C469.79 220.701 470.377 220.087 470.801 219.307C471.233 218.519 471.449 217.629 471.449 216.636C471.449 215.621 471.225 214.716 470.778 213.92C470.339 213.117 469.733 212.485 468.96 212.023C468.188 211.561 467.305 211.326 466.312 211.318C465.6 211.311 464.869 211.42 464.119 211.648C463.369 211.867 462.752 212.152 462.267 212.5L459.631 212.182L461.04 200.727H473.131V203.227H463.403L462.585 210.091H462.722C463.199 209.712 463.797 209.398 464.517 209.148C465.237 208.898 465.987 208.773 466.767 208.773C468.191 208.773 469.46 209.114 470.574 209.795C471.695 210.47 472.574 211.394 473.21 212.568C473.854 213.742 474.176 215.083 474.176 216.591C474.176 218.076 473.843 219.402 473.176 220.568C472.517 221.727 471.608 222.644 470.449 223.318C469.29 223.985 467.972 224.318 466.494 224.318Z" fill="black"/>
<path d="M341.818 224V200.727H349.955C351.576 200.727 352.913 201.008 353.966 201.568C355.019 202.121 355.803 202.867 356.318 203.807C356.833 204.739 357.091 205.773 357.091 206.909C357.091 207.909 356.913 208.735 356.557 209.386C356.208 210.038 355.746 210.553 355.17 210.932C354.602 211.311 353.985 211.591 353.318 211.773V212C354.03 212.045 354.746 212.295 355.466 212.75C356.186 213.205 356.788 213.856 357.273 214.705C357.758 215.553 358 216.591 358 217.818C358 218.985 357.735 220.034 357.205 220.966C356.674 221.898 355.837 222.636 354.693 223.182C353.549 223.727 352.061 224 350.227 224H341.818ZM344.636 221.5H350.227C352.068 221.5 353.375 221.144 354.148 220.432C354.928 219.712 355.318 218.841 355.318 217.818C355.318 217.03 355.117 216.303 354.716 215.636C354.314 214.962 353.742 214.424 353 214.023C352.258 213.614 351.379 213.409 350.364 213.409H344.636V221.5ZM344.636 210.955H349.864C350.712 210.955 351.477 210.788 352.159 210.455C352.848 210.121 353.394 209.652 353.795 209.045C354.205 208.439 354.409 207.727 354.409 206.909C354.409 205.886 354.053 205.019 353.341 204.307C352.629 203.587 351.5 203.227 349.955 203.227H344.636V210.955ZM361.676 219.227V216.909L371.903 200.727H373.585V204.318H372.449L364.722 216.545V216.727H378.494V219.227H361.676ZM372.631 224V218.523V217.443V200.727H375.312V224H372.631Z" fill="black"/>
<path d="M242.818 224V200.727H250.955C252.576 200.727 253.913 201.008 254.966 201.568C256.019 202.121 256.803 202.867 257.318 203.807C257.833 204.739 258.091 205.773 258.091 206.909C258.091 207.909 257.913 208.735 257.557 209.386C257.208 210.038 256.746 210.553 256.17 210.932C255.602 211.311 254.985 211.591 254.318 211.773V212C255.03 212.045 255.746 212.295 256.466 212.75C257.186 213.205 257.788 213.856 258.273 214.705C258.758 215.553 259 216.591 259 217.818C259 218.985 258.735 220.034 258.205 220.966C257.674 221.898 256.837 222.636 255.693 223.182C254.549 223.727 253.061 224 251.227 224H242.818ZM245.636 221.5H251.227C253.068 221.5 254.375 221.144 255.148 220.432C255.928 219.712 256.318 218.841 256.318 217.818C256.318 217.03 256.117 216.303 255.716 215.636C255.314 214.962 254.742 214.424 254 214.023C253.258 213.614 252.379 213.409 251.364 213.409H245.636V221.5ZM245.636 210.955H250.864C251.712 210.955 252.477 210.788 253.159 210.455C253.848 210.121 254.394 209.652 254.795 209.045C255.205 208.439 255.409 207.727 255.409 206.909C255.409 205.886 255.053 205.019 254.341 204.307C253.629 203.587 252.5 203.227 250.955 203.227H245.636V210.955ZM271.085 224.318C269.585 224.318 268.248 224.061 267.074 223.545C265.907 223.03 264.979 222.314 264.29 221.398C263.608 220.473 263.237 219.402 263.176 218.182H266.04C266.1 218.932 266.358 219.58 266.812 220.125C267.267 220.663 267.862 221.08 268.597 221.375C269.331 221.67 270.146 221.818 271.04 221.818C272.04 221.818 272.926 221.644 273.699 221.295C274.472 220.947 275.078 220.462 275.517 219.841C275.956 219.22 276.176 218.5 276.176 217.682C276.176 216.826 275.964 216.072 275.54 215.42C275.116 214.761 274.494 214.246 273.676 213.875C272.858 213.504 271.858 213.318 270.676 213.318H268.812V210.818H270.676C271.6 210.818 272.411 210.652 273.108 210.318C273.813 209.985 274.362 209.515 274.756 208.909C275.157 208.303 275.358 207.591 275.358 206.773C275.358 205.985 275.184 205.299 274.835 204.716C274.487 204.133 273.994 203.678 273.358 203.352C272.729 203.027 271.987 202.864 271.131 202.864C270.328 202.864 269.57 203.011 268.858 203.307C268.153 203.595 267.578 204.015 267.131 204.568C266.684 205.114 266.441 205.773 266.403 206.545H263.676C263.722 205.326 264.089 204.258 264.778 203.341C265.468 202.417 266.369 201.697 267.483 201.182C268.604 200.667 269.835 200.409 271.176 200.409C272.616 200.409 273.85 200.701 274.881 201.284C275.911 201.86 276.703 202.621 277.256 203.568C277.809 204.515 278.085 205.538 278.085 206.636C278.085 207.947 277.741 209.064 277.051 209.989C276.369 210.913 275.441 211.553 274.267 211.909V212.091C275.737 212.333 276.884 212.958 277.71 213.966C278.536 214.966 278.949 216.205 278.949 217.682C278.949 218.947 278.604 220.083 277.915 221.091C277.233 222.091 276.301 222.879 275.119 223.455C273.938 224.03 272.593 224.318 271.085 224.318Z" fill="black"/>
<path d="M149.818 224V200.727H157.955C159.576 200.727 160.913 201.008 161.966 201.568C163.019 202.121 163.803 202.867 164.318 203.807C164.833 204.739 165.091 205.773 165.091 206.909C165.091 207.909 164.913 208.735 164.557 209.386C164.208 210.038 163.746 210.553 163.17 210.932C162.602 211.311 161.985 211.591 161.318 211.773V212C162.03 212.045 162.746 212.295 163.466 212.75C164.186 213.205 164.788 213.856 165.273 214.705C165.758 215.553 166 216.591 166 217.818C166 218.985 165.735 220.034 165.205 220.966C164.674 221.898 163.837 222.636 162.693 223.182C161.549 223.727 160.061 224 158.227 224H149.818ZM152.636 221.5H158.227C160.068 221.5 161.375 221.144 162.148 220.432C162.928 219.712 163.318 218.841 163.318 217.818C163.318 217.03 163.117 216.303 162.716 215.636C162.314 214.962 161.742 214.424 161 214.023C160.258 213.614 159.379 213.409 158.364 213.409H152.636V221.5ZM152.636 210.955H157.864C158.712 210.955 159.477 210.788 160.159 210.455C160.848 210.121 161.394 209.652 161.795 209.045C162.205 208.439 162.409 207.727 162.409 206.909C162.409 205.886 162.053 205.019 161.341 204.307C160.629 203.587 159.5 203.227 157.955 203.227H152.636V210.955ZM170.222 224V221.955L177.903 213.545C178.805 212.561 179.547 211.705 180.131 210.977C180.714 210.242 181.146 209.553 181.426 208.909C181.714 208.258 181.858 207.576 181.858 206.864C181.858 206.045 181.661 205.337 181.267 204.739C180.881 204.14 180.35 203.678 179.676 203.352C179.002 203.027 178.244 202.864 177.403 202.864C176.509 202.864 175.729 203.049 175.062 203.42C174.403 203.784 173.892 204.295 173.528 204.955C173.172 205.614 172.994 206.386 172.994 207.273H170.312C170.312 205.909 170.627 204.712 171.256 203.682C171.884 202.652 172.741 201.848 173.824 201.273C174.915 200.697 176.138 200.409 177.494 200.409C178.858 200.409 180.066 200.697 181.119 201.273C182.172 201.848 182.998 202.625 183.597 203.602C184.195 204.58 184.494 205.667 184.494 206.864C184.494 207.72 184.339 208.557 184.028 209.375C183.725 210.186 183.195 211.091 182.438 212.091C181.688 213.083 180.646 214.295 179.312 215.727L174.085 221.318V221.5H184.903V224H170.222Z" fill="black"/>
<defs>
<linearGradient id="paint0_linear_2_5" x1="0" y1="293.5" x2="518" y2="293.5" gradientUnits="userSpaceOnUse">
<stop stop-color="#A1C4FD"/>
<stop offset="1" stop-color="#C2E9FB"/>
</linearGradient>
</defs>
</svg>
